<?xml version="1.0" encoding="utf-8"?>
<!-- Generator: Adobe Illustrator 23.0.3, SVG Export Plug-In . SVG Version: 6.00 Build 0)  -->
<svg version="1.1" id="图层_1" xmlns="http://www.w3.org/2000/svg" xmlns:xlink="http://www.w3.org/1999/xlink" x="0px" y="0px"
	 viewBox="0 0 7 7" style="enable-background:new 0 0 7 7;" xml:space="preserve">
<style type="text/css">
	.st0{fill:#FFFFFF;}
</style>
<title>编组 2</title>
<desc>Created with Sketch.</desc>
<g id="资源管理">
	<g id="Category-无数据" transform="translate(-96.000000, -226.000000)">
		<g id="导航" transform="translate(0.000000, -1.000000)">
			<g id="编组-2" transform="translate(95.000000, 226.000000)">
				<path id="形状" class="st0" d="M4.3,3.1L2.8,4.6c-0.1,0.1-0.1,0.3,0,0.4l0.4,0.4c0.1,0.1,0.3,0.1,0.4,0L5,3.9
					c0.1-0.1,0.1-0.3,0-0.4L4.6,3.1C4.5,3,4.3,3,4.3,3.1z M6.7,5.5L4.8,6c0,0-0.1,0-0.1,0.1C4.6,6.1,4.6,6.2,4.6,6.3l0.2,0.6
					c0,0.1,0.2,0.2,0.3,0.2L7,6.6c0,0,0.1,0,0.1-0.1c0.1-0.1,0.1-0.2,0.1-0.2L7,5.7C7,5.5,6.8,5.5,6.7,5.5L6.7,5.5z M1.9,3.6
					c0.1,0,0.2,0,0.2-0.1c0,0,0.1-0.1,0.1-0.1l0.5-1.9c0-0.1,0-0.3-0.2-0.3L1.9,1C1.8,1,1.7,1,1.7,1.1c0,0-0.1,0.1-0.1,0.1L1.1,3.1
					c0,0.1,0,0.3,0.2,0.3L1.9,3.6z"/>
			</g>
		</g>
	</g>
</g>
</svg>
